<?xml version="1.0" encoding="UTF-8" standalone="no"?>
<svg
   xmlns:dc="http://purl.org/dc/elements/1.1/"
   xmlns:cc="http://creativecommons.org/ns#"
   xmlns:rdf="http://www.w3.org/1999/02/22-rdf-syntax-ns#"
   xmlns:svg="http://www.w3.org/2000/svg"
   xmlns="http://www.w3.org/2000/svg"
   xmlns:sodipodi="http://sodipodi.sourceforge.net/DTD/sodipodi-0.dtd"
   xmlns:inkscape="http://www.inkscape.org/namespaces/inkscape"
   viewBox="0 0 1000 1000"
   version="1.1"
   id="svg6"
   sodipodi:docname="small.svg"
   inkscape:version="0.92.2 5c3e80d, 2017-08-06"
   width="1000"
   height="1000"
   inkscape:export-filename="/Users/gervasio/Desktop/icon48.png"
   inkscape:export-xdpi="4.6785045"
   inkscape:export-ydpi="4.6785045">
  <metadata
     id="metadata12">
    <rdf:RDF>
      <cc:Work
         rdf:about="">
        <dc:format>image/svg+xml</dc:format>
        <dc:type
           rdf:resource="http://purl.org/dc/dcmitype/StillImage" />
        <dc:title />
      </cc:Work>
    </rdf:RDF>
  </metadata>
  <defs
     id="defs10">
    <clipPath
       clipPathUnits="userSpaceOnUse"
       id="clipPath4534">
      <rect
         style="fill:#ffffff;fill-opacity:1"
         id="rect4536"
         width="738"
         height="668"
         x="130"
         y="71" />
    </clipPath>
  </defs>
  <sodipodi:namedview
     pagecolor="#ffffff"
     bordercolor="#666666"
     borderopacity="1"
     objecttolerance="10"
     gridtolerance="10"
     guidetolerance="10"
     inkscape:pageopacity="0"
     inkscape:pageshadow="2"
     inkscape:window-width="1608"
     inkscape:window-height="1044"
     id="namedview8"
     showgrid="false"
     inkscape:zoom="0.03125"
     inkscape:cx="339.50188"
     inkscape:cy="471.17936"
     inkscape:window-x="0"
     inkscape:window-y="0"
     inkscape:window-maximized="0"
     inkscape:current-layer="svg6" />
  <path
     style="fill:#4a3a4a;stroke-width:1.35251498;fill-opacity:0.19607843"
     d="M 79.958984 39.679688 C 42.68367 39.679688 11.441406 72.301783 11.441406 109.48242 L 11.441406 762.88281 C 11.441406 803.01193 45.415679 836.44727 81.392578 836.44727 L 341.07617 836.44727 C 338.91215 859.9134 325.87438 882.8778 305.11328 894.6582 C 297.62034 899.2297 288.59826 900.78642 281.63281 906.30469 C 276.29037 910.55158 270.63757 915.52883 269.0957 922.50781 C 268.36535 925.83499 270.85395 929.05286 273.77539 930.32422 C 278.75264 932.48825 284.31187 932.54297 289.6543 932.54297 L 714.34375 932.54297 C 718.21194 932.54297 722.25591 931.82661 725.50195 929.52734 C 733.18424 924.10375 733.3066 911.26743 725.92188 905.49219 C 721.418 901.9621 715.4793 902.32733 710.15039 901.89453 C 697.57201 900.89367 685.89942 894.09147 678.06836 884.33984 C 666.91011 870.65239 661.79788 853.36723 657.92969 836.44727 L 902.33008 836.44727 C 960.50175 836.44727 991.14844 808.11205 991.14844 749.30469 L 991.14844 108.21289 C 991.14844 70.77528 963.53083 39.855808 924.06445 39.707031 L 79.958984 39.707031 L 79.958984 39.679688 z "
     id="path2" />
  <path
     style="display:inline;fill:#ffffff;stroke-width:1.35251498"
     d="M 124.06445 153.19727 L 124.06445 616.16211 L 872.68164 616.16211 L 872.68164 153.19727 L 124.06445 153.19727 z M 501.26367 692.71875 C 499.47101 692.70237 497.66487 692.87546 495.87109 693.25586 C 480.77703 696.46132 470.38973 713.57038 474.98828 728.33984 C 479.26223 742.06787 495.14152 751.06281 509.08594 746.95117 C 522.39469 743.02887 531.59154 728.31231 528.50781 714.61133 C 525.7267 702.2206 513.81232 692.8334 501.26367 692.71875 z "
     id="path4" />
  <text
     xml:space="preserve"
     style="font-style:normal;font-weight:normal;font-size:353.48983765px;line-height:1.25;font-family:sans-serif;letter-spacing:0px;word-spacing:0px;display:inline;fill:#d3366e;fill-opacity:1;stroke:none;stroke-width:8.83724689"
     x="41.56097"
     y="957.36499"
     id="text3705"
     transform="scale(0.96260028,1.0388528)"><tspan
       sodipodi:role="line"
       id="tspan3703"
       x="41.56097"
       y="957.36499"
       style="font-style:normal;font-variant:normal;font-weight:normal;font-stretch:normal;font-size:1696.75134277px;font-family:SignPainter;-inkscape-font-specification:SignPainter;fill:#d3366e;fill-opacity:1;stroke-width:8.83724689">#</tspan></text>
</svg>
